<?xml version="1.0" encoding="UTF-8"?><svg id="Layer_2" xmlns="http://www.w3.org/2000/svg" width="369.81" height="174.12" viewBox="0 0 369.81 174.12"><defs><style>.cls-1,.cls-2{fill:#fff;stroke-width:0px;}.cls-2,.cls-3{fill-rule:evenodd;}.cls-3{fill:#0074c8;stroke:#0074c8;stroke-miterlimit:10;}</style></defs><path class="cls-1" d="M78.42,154.42h9.18l3.45,7.2c.58,1.21,1.09,2.43,1.49,3.6.47-1.28,1.05-2.59,1.74-4.01l3.23-6.79h9.18v14.79h-6.09v-6.56c0-.8.07-2.41.25-4.83l-5.01,11.4h-6.64l-4.9-11.4c.18,2.94.25,4.96.25,6.01v5.39h-6.13v-14.79Z"/><path class="cls-1" d="M125.98,154.42l9.21,14.79h-7.18l-1.6-2.71h-8.71l-1.49,2.71h-6.93l9.39-14.79h7.29ZM125,163.42l-2.9-5.1-2.79,5.1h5.69Z"/><path class="cls-1" d="M137.74,154.42h7.22l4.93,4.85c1.6,1.58,3.05,3.15,4.32,4.65-.22-2.57-.29-4.48-.29-5.72v-3.78h6.46v14.79h-7.22l-5.11-5c-1.16-1.13-2.58-2.59-4.21-4.36.25,2.06.36,3.7.36,4.9v4.46h-6.46v-14.79Z"/><path class="cls-1" d="M179.63,154.42l9.21,14.79h-7.18l-1.6-2.71h-8.71l-1.49,2.71h-6.93l9.39-14.79h7.29ZM178.65,163.42l-2.9-5.1-2.79,5.1h5.69Z"/><path class="cls-1" d="M210.5,167.29c-1.96,1.56-4.64,2.3-8.23,2.3-3.34,0-6.27-.7-8.49-2.06-2.25-1.38-3.48-3.29-3.48-5.55,0-4.83,5.3-8,13.38-8,6.13,0,10.3,1.83,11.35,4.96h-6.38c-.87-1.28-2.65-1.93-5.15-1.93-3.74,0-6.42,1.85-6.42,4.83s2.58,4.69,6.42,4.69c3.12,0,5.26-.95,5.77-2.55h-5.8v-2.84h11.75v8.06h-4.17l-.54-1.91Z"/><path class="cls-1" d="M220.08,154.42h19.8v3.02h-13.13v2.61h12v2.96h-12v3.17h13.56v3.02h-20.24v-14.79Z"/><path class="cls-1" d="M244.32,154.42h9.18l3.45,7.2c.58,1.21,1.09,2.43,1.49,3.6.47-1.28,1.05-2.59,1.74-4.01l3.23-6.79h9.18v14.79h-6.09v-6.56c0-.8.07-2.41.25-4.83l-5.01,11.4h-6.64l-4.9-11.4c.18,2.94.25,4.96.25,6.01v5.39h-6.13v-14.79Z"/><path class="cls-1" d="M277.76,154.42h19.8v3.02h-13.13v2.61h12v2.96h-12v3.17h13.56v3.02h-20.24v-14.79Z"/><path class="cls-1" d="M301.96,154.42h7.22l4.93,4.85c1.6,1.58,3.05,3.15,4.32,4.65-.22-2.57-.29-4.48-.29-5.72v-3.78h6.46v14.79h-7.22l-5.11-5c-1.16-1.13-2.58-2.59-4.21-4.36.25,2.06.36,3.7.36,4.9v4.46h-6.46v-14.79Z"/><path class="cls-1" d="M334.97,157.42h-7.47v-3h21.65v3h-7.51v11.79h-6.67v-11.79Z"/><path class="cls-2" d="M201.85,94.61h-30.41v14.04h30.41c6.14.4,10.59-1,10.5-7.23.14-5.57-4.22-7.07-10.5-6.81M149.76,79h52.1c22.57-1.03,34.45,5.74,35.04,20.77-.28,10.67-6.07,17.2-17.21,19.71l19.4,26.13h-25.22l-16.75-23.3h-25.68v23.3h-21.68v-66.61Z"/><path class="cls-2" d="M143.56,78.9v15.61h-33.55v51h-21.68v-51h-49.39l10.8-15.61h93.83"/><polygon class="cls-2" points="241.45 78.9 266.03 78.9 280.91 118.37 294.97 78.9 296.91 78.9 314.13 78.9 316.07 78.9 330.24 118.68 345.23 78.9 369.81 78.9 344.71 145.51 339.8 145.51 320.64 145.51 320.13 145.51 320.39 144.81 305.52 103.06 290.76 144.5 291.14 145.51 290.4 145.51 271.24 145.51 266.56 145.51 241.45 78.9"/><polygon class="cls-3" points="80.32 145.51 80.32 99.62 76.67 99.62 70.73 99.62 28.05 99.62 59.84 53.66 71.96 73.48 90.61 73.48 69.73 39.36 75.28 31.34 101.2 73.48 124.97 73.48 75.28 .88 2.35 106.78 2.44 106.78 .94 109.01 70.73 109.01 70.73 145.51 80.32 145.51"/></svg>