<?xml version="1.0" encoding="utf-8"?>
<!-- Generator: Adobe Illustrator 28.2.0, SVG Export Plug-In . SVG Version: 6.00 Build 0)  -->
<svg version="1.1" id="Layer_1" xmlns="http://www.w3.org/2000/svg" xmlns:xlink="http://www.w3.org/1999/xlink" x="0px" y="0px"
	 viewBox="0 0 332.5 152.51" style="enable-background:new 0 0 332.5 152.51;" xml:space="preserve">
<style type="text/css">
	.st0{fill:#FFFFFF;}
	.st1{fill-rule:evenodd;clip-rule:evenodd;fill:#FFFFFF;}
</style>
<g>
	<g>
		<g>
			<path class="st0" d="M24.96,131.72h9.69l3.64,7.59c0.61,1.28,1.15,2.56,1.57,3.8c0.5-1.35,1.11-2.73,1.84-4.23l3.41-7.16h9.69
				v15.6h-6.43v-6.92c0-0.85,0.08-2.54,0.27-5.1l-5.28,12.02h-7.01l-5.17-12.02c0.19,3.1,0.27,5.23,0.27,6.34v5.68h-6.47V131.72z"/>
			<path class="st0" d="M75.15,131.72l9.72,15.6H77.3l-1.68-2.86h-9.19l-1.57,2.86h-7.31l9.92-15.6H75.15z M74.12,141.23l-3.06-5.38
				l-2.95,5.38H74.12z"/>
			<path class="st0" d="M87.56,131.72h7.62l5.21,5.12c1.68,1.67,3.22,3.32,4.56,4.9c-0.23-2.71-0.31-4.73-0.31-6.03v-3.99h6.81v15.6
				h-7.62l-5.4-5.27c-1.23-1.19-2.72-2.73-4.44-4.6c0.27,2.17,0.38,3.91,0.38,5.17v4.71h-6.81V131.72z"/>
			<path class="st0" d="M131.78,131.72l9.72,15.6h-7.58l-1.68-2.86h-9.19l-1.57,2.86h-7.31l9.92-15.6H131.78z M130.74,141.23
				l-3.06-5.38l-2.95,5.38H130.74z"/>
			<path class="st0" d="M164.36,145.31c-2.07,1.65-4.9,2.43-8.69,2.43c-3.52,0-6.62-0.74-8.96-2.17c-2.37-1.45-3.68-3.47-3.68-5.86
				c0-5.1,5.59-8.44,14.13-8.44c6.47,0,10.87,1.93,11.98,5.23h-6.74c-0.92-1.35-2.79-2.04-5.44-2.04c-3.94,0-6.78,1.95-6.78,5.1
				c0,3.08,2.72,4.95,6.78,4.95c3.29,0,5.55-1,6.09-2.69h-6.13v-2.99h12.4v8.51h-4.4L164.36,145.31z"/>
			<path class="st0" d="M174.47,131.72h20.9v3.19h-13.86v2.76h12.67v3.12h-12.67v3.34h14.32v3.19h-21.36V131.72z"/>
			<path class="st0" d="M200.04,131.72h9.69l3.64,7.59c0.61,1.28,1.15,2.56,1.57,3.8c0.5-1.35,1.11-2.73,1.84-4.23l3.41-7.16h9.69
				v15.6h-6.43v-6.92c0-0.85,0.08-2.54,0.27-5.1l-5.28,12.02h-7.01l-5.17-12.02c0.19,3.1,0.27,5.23,0.27,6.34v5.68h-6.47V131.72z"/>
			<path class="st0" d="M235.34,131.72h20.9v3.19h-13.86v2.76h12.67v3.12h-12.67v3.34h14.32v3.19h-21.36V131.72z"/>
			<path class="st0" d="M260.88,131.72h7.62l5.21,5.12c1.68,1.67,3.22,3.32,4.56,4.9c-0.23-2.71-0.31-4.73-0.31-6.03v-3.99h6.81
				v15.6h-7.62l-5.4-5.27c-1.23-1.19-2.72-2.73-4.44-4.6c0.27,2.17,0.38,3.91,0.38,5.17v4.71h-6.81V131.72z"/>
			<path class="st0" d="M295.72,134.89h-7.89v-3.17h22.86v3.17h-7.92v12.43h-7.04V134.89z"/>
		</g>
		<path class="st1" d="M148.02,55.71c-0.86,0.3-1.94,0.48-3.36,0.38c-1.9-0.06-3.8-0.53-5.34-1.22c-0.2-0.07-0.39-0.14-0.6-0.21l0,0
			c-2.58-0.88-4.85-1.74-6.37-2.54h0.32c-4.26-2.09-8.21-4.77-10.37-7.93c-6.34-6.5-9.74-18.33-9.94-35.91
			c0.53-1.13,0.93-0.37,1.24,1.58c3,14.13,5.8,24.48,9.51,28.22c3.34,1.78,5.42-1.38,6.46-3.68c-0.94-7.03-1.01-14.57-0.16-22.66
			c0.79-4.09,1.89-7.77,3.16-11.24c1.23-0.99,1.28-0.37,1.23,0.4c-0.44,3-0.88,5.99-1.32,8.99c-0.48,7.07-0.55,14.11,0.91,21.06
			c0.66,2.53,2.03,3.38,3.87,3.14c1.82-0.22,3.64-0.44,5.46-0.65c2.15-0.41,2.74-0.97,3.03-3.12c-0.01-8.82,1.75-11.99,3.02-16.71
			c1.16-0.77,1.03,0.28,0.51,1.85c-0.57,4.12-0.96,8.35-0.12,13.44c0.83,3.43,2.84,4.1,5.42,3.46c9.24-0.89,10.44-2.78,12.06-4.62
			c1.22-1.43,1.7-1.29,1.34,0.58c-1.21,3.21-3.61,5.01-7.52,6.56c-5.89,1.41-14.33,2.51-20.23,3.92c-5.89,1.09-7.4,2.49-7.62,3.72
			c-0.35,1.98,1.16,3.79,2.83,4.67c3.55,1.87,10.09,3.25,13.64,4.93h6.15c23.82-1.09,36.36,6.06,36.99,21.92
			c-0.29,11.26-6.41,18.15-18.17,20.81l20.47,27.58h-25.17c-6.29-5.89-11.95-10.6-19.58-15.13c-3.93-5.13-3.84-10.64-2.09-16.31
			c1.71-3.4,2.72-5.4,4.43-8.8c8.31-0.47,14.38-2.14,22.29-2.6c0.86-0.33,2.15-1.32,2.44-1.94c0.4-0.01,0.3-0.01,0.7-0.02
			c0.86-0.02,0.94-0.08,1.49-0.85c1.52-2.12,1.99-4.03,1.6-5.53c-0.32-1.24-1.47-2.23-2.43-3c-5.36-1.9-10.25-3.69-15.61-5.59
			c-0.69-1.39-1.58-2.86-3.13-4.58c-2.68-2.16-5.13-3.48-8.2-4.22C150.36,54.76,149.24,55.36,148.02,55.71 M100.25,52.12h14.98
			c0.54,2.26,1.3,4.57,3,6.2c2.32,2.21,7.33,2.81,9.64,5.02c-1.69,1.61-3.18,3.37-4.52,5.25h-0.23v0.32
			c-1.78,2.54-3.29,5.3-4.65,8.17c-4.66,7.37-7.9,15.15-9.56,23.38c-3.7,7.32-5.73,14.64-6.8,21.96h-1.87V52.12z"/>
		<path class="st1" d="M93.71,52.01v16.47H58.3v53.83H35.41V68.48H0V52.01C29.16,52.01,64.55,52.01,93.71,52.01"/>
		<polygon class="st1" points="197.03,52.01 222.97,52.01 238.67,93.67 253.51,52.01 255.56,52.01 273.73,52.01 275.78,52.01 
			290.74,93.99 306.56,52.01 332.5,52.01 306.01,122.31 300.83,122.31 280.6,122.31 280.06,122.31 280.34,121.58 264.65,77.51 
			249.07,121.25 249.47,122.31 248.69,122.31 228.47,122.31 223.52,122.31 		"/>
	</g>
</g>
</svg>
